<svg width="18" height="18" viewBox="0 0 18 18" fill="none" xmlns="http://www.w3.org/2000/svg">
<mask id="path-1-outside-1" maskUnits="userSpaceOnUse" x="0" y="0" width="18" height="18" fill="black">
<rect fill="white" width="18" height="18"/>
<path fill-rule="evenodd" clip-rule="evenodd" d="M9.19983 1.05569C9.14457 1.01903 9.07964 0.999659 9.01332 1.00005C8.92667 0.998623 8.84285 1.03095 8.7796 1.09019L1.10023 8.76956C1.0656 8.8044 1.03943 8.84609 1.02303 8.89142C1.00796 8.92989 1 8.97118 1 9.01329C1 9.10184 1.03518 9.18677 1.09779 9.24938C1.11534 9.26694 1.13465 9.28233 1.15529 9.2954L8.7796 16.9197C8.84347 16.9744 8.92563 17.003 9.00967 16.9997C9.0937 16.9965 9.17341 16.9617 9.23287 16.9022C9.29233 16.8427 9.32717 16.763 9.33042 16.679C9.33366 16.595 9.30508 16.5128 9.25038 16.4489L2.14544 9.34718H16.6926C16.7812 9.34718 16.8661 9.312 16.9287 9.24938C16.9913 9.18677 17.0265 9.10184 17.0265 9.01329C17.0265 8.92474 16.9913 8.83981 16.9287 8.77719C16.8661 8.71458 16.7812 8.6794 16.6926 8.6794H2.14516L9.25038 1.57099C9.29747 1.52429 9.32958 1.46462 9.34262 1.3996C9.35567 1.33458 9.34906 1.26714 9.32362 1.20589C9.29819 1.14464 9.2551 1.09235 9.19983 1.05569Z"/>
</mask>
<path fill-rule="evenodd" clip-rule="evenodd" d="M9.19983 1.05569C9.14457 1.01903 9.07964 0.999659 9.01332 1.00005C8.92667 0.998623 8.84285 1.03095 8.7796 1.09019L1.10023 8.76956C1.0656 8.8044 1.03943 8.84609 1.02303 8.89142C1.00796 8.92989 1 8.97118 1 9.01329C1 9.10184 1.03518 9.18677 1.09779 9.24938C1.11534 9.26694 1.13465 9.28233 1.15529 9.2954L8.7796 16.9197C8.84347 16.9744 8.92563 17.003 9.00967 16.9997C9.0937 16.9965 9.17341 16.9617 9.23287 16.9022C9.29233 16.8427 9.32717 16.763 9.33042 16.679C9.33366 16.595 9.30508 16.5128 9.25038 16.4489L2.14544 9.34718H16.6926C16.7812 9.34718 16.8661 9.312 16.9287 9.24938C16.9913 9.18677 17.0265 9.10184 17.0265 9.01329C17.0265 8.92474 16.9913 8.83981 16.9287 8.77719C16.8661 8.71458 16.7812 8.6794 16.6926 8.6794H2.14516L9.25038 1.57099C9.29747 1.52429 9.32958 1.46462 9.34262 1.3996C9.35567 1.33458 9.34906 1.26714 9.32362 1.20589C9.29819 1.14464 9.2551 1.09235 9.19983 1.05569Z" fill="white"/>
<path d="M9.01332 1.00005L9.00019 1.79994L9.00908 1.80008L9.01797 1.80003L9.01332 1.00005ZM9.19983 1.05569L8.75759 1.72234L8.7576 1.72235L9.19983 1.05569ZM8.7796 1.09019L8.23273 0.506302L8.22317 0.515251L8.21392 0.524508L8.7796 1.09019ZM1.10023 8.76956L0.534544 8.20387L0.532866 8.20556L1.10023 8.76956ZM1.02303 8.89142L1.76784 9.18341L1.77174 9.17348L1.77536 9.16345L1.02303 8.89142ZM1.09779 9.24938L1.66349 8.68371L1.66348 8.6837L1.09779 9.24938ZM1.15529 9.2954L1.72097 8.72971L1.6582 8.66694L1.58319 8.61945L1.15529 9.2954ZM8.7796 16.9197L8.21392 17.4854L8.23577 17.5072L8.25924 17.5273L8.7796 16.9197ZM9.00967 16.9997L9.04054 17.7991H9.04055L9.00967 16.9997ZM9.23287 16.9022L8.66719 16.3365L8.66719 16.3365L9.23287 16.9022ZM9.33042 16.679L10.1298 16.7099V16.7099L9.33042 16.679ZM9.25038 16.4489L9.85801 15.9286L9.83786 15.905L9.81594 15.8831L9.25038 16.4489ZM2.14544 9.34718V8.54718H0.213452L1.57988 9.91299L2.14544 9.34718ZM16.9287 8.77719L16.363 9.34287L16.363 9.34287L16.9287 8.77719ZM2.14516 8.6794L1.57935 8.11384L0.214399 9.4794H2.14516V8.6794ZM9.25038 1.57099L8.68702 1.00298L8.68457 1.00543L9.25038 1.57099ZM9.34262 1.3996L8.55825 1.24223L8.55825 1.24225L9.34262 1.3996ZM9.32362 1.20589L10.0625 0.899122L10.0625 0.899112L9.32362 1.20589ZM9.01797 1.80003C8.9254 1.80057 8.83475 1.77353 8.75759 1.72234L9.64207 0.38904C9.45438 0.264533 9.23388 0.198749 9.00867 0.200059L9.01797 1.80003ZM9.32648 1.67408C9.23816 1.7568 9.12116 1.80192 9.00019 1.79994L9.02645 0.200153C8.73218 0.195323 8.44755 0.305101 8.23273 0.506302L9.32648 1.67408ZM1.66592 9.33525L9.34529 1.65588L8.21392 0.524508L0.534546 8.20388L1.66592 9.33525ZM1.77536 9.16345C1.7525 9.22669 1.71595 9.28492 1.6676 9.33356L0.532866 8.20556C0.415247 8.32388 0.326355 8.46548 0.270703 8.6194L1.77536 9.16345ZM1.8 9.01329C1.8 9.07206 1.78888 9.12974 1.76784 9.18341L0.278221 8.59944C0.227027 8.73003 0.2 8.87029 0.2 9.01329H1.8ZM1.66348 8.6837C1.7509 8.77112 1.8 8.88967 1.8 9.01329H0.2C0.2 9.31401 0.319458 9.60242 0.532104 9.81507L1.66348 8.6837ZM1.58319 8.61945C1.61204 8.63772 1.63901 8.65923 1.66349 8.68371L0.532098 9.81506C0.591674 9.87464 0.65725 9.92694 0.727391 9.97134L1.58319 8.61945ZM9.34529 16.354L1.72097 8.72971L0.589603 9.86108L8.21392 17.4854L9.34529 16.354ZM8.97879 16.2003C9.0961 16.1958 9.2108 16.2357 9.29996 16.3121L8.25924 17.5273C8.47615 17.7131 8.75517 17.8102 9.04054 17.7991L8.97879 16.2003ZM8.66719 16.3365C8.7502 16.2535 8.86148 16.2049 8.97878 16.2003L9.04055 17.7991C9.32592 17.7881 9.59662 17.6698 9.79856 17.4679L8.66719 16.3365ZM8.53101 16.6481C8.53554 16.5308 8.58417 16.4195 8.66719 16.3365L9.79855 17.4679C10.0005 17.2659 10.1188 16.9952 10.1298 16.7099L8.53101 16.6481ZM8.64275 16.9693C8.56638 16.8801 8.52648 16.7654 8.53101 16.6481L10.1298 16.7099C10.1408 16.4245 10.0438 16.1455 9.85801 15.9286L8.64275 16.9693ZM1.57988 9.91299L8.68482 17.0147L9.81594 15.8831L2.711 8.78137L1.57988 9.91299ZM16.6926 8.54718H2.14544V10.1472H16.6926V8.54718ZM16.363 8.6837C16.4504 8.59629 16.569 8.54718 16.6926 8.54718V10.1472C16.9934 10.1472 17.2818 10.0277 17.4944 9.81507L16.363 8.6837ZM16.2265 9.01329C16.2265 8.88967 16.2756 8.77112 16.363 8.6837L17.4944 9.81507C17.7071 9.60242 17.8265 9.31401 17.8265 9.01329H16.2265ZM16.363 9.34287C16.2756 9.25546 16.2265 9.1369 16.2265 9.01329H17.8265C17.8265 8.71257 17.7071 8.42416 17.4944 8.21151L16.363 9.34287ZM16.6926 9.4794C16.569 9.4794 16.4504 9.43029 16.363 9.34287L17.4944 8.21151C17.2818 7.99886 16.9934 7.8794 16.6926 7.8794V9.4794ZM2.14516 9.4794H16.6926V7.8794H2.14516V9.4794ZM8.68457 1.00543L1.57935 8.11384L2.71097 9.24496L9.81619 2.13655L8.68457 1.00543ZM8.55825 1.24225C8.57646 1.15146 8.6213 1.06817 8.68703 1.00298L9.81373 2.139C9.97364 1.9804 10.0827 1.77778 10.127 1.55695L8.55825 1.24225ZM8.58478 1.51266C8.54928 1.42715 8.54004 1.33301 8.55825 1.24223L10.127 1.55696C10.1713 1.33614 10.1488 1.10713 10.0625 0.899122L8.58478 1.51266ZM8.7576 1.72235C8.68044 1.67116 8.62028 1.59817 8.58478 1.51267L10.0625 0.899112C9.9761 0.691117 9.82975 0.513542 9.64207 0.389037L8.7576 1.72235Z" fill="white" mask="url(#path-1-outside-1)"/>
</svg>
